G04 #@! TF.GenerationSoftware,KiCad,Pcbnew,(5.1.5)-3*
G04 #@! TF.CreationDate,2021-03-23T18:23:01+09:00*
G04 #@! TF.ProjectId,DSub15TestPoint(3x4),44537562-3135-4546-9573-74506f696e74,rev?*
G04 #@! TF.SameCoordinates,Original*
G04 #@! TF.FileFunction,Copper,L1,Top*
G04 #@! TF.FilePolarity,Positive*
%FSLAX46Y46*%
G04 Gerber Fmt 4.6, Leading zero omitted, Abs format (unit mm)*
G04 Created by KiCad (PCBNEW (5.1.5)-3) date 2021-03-23 18:23:01*
%MOMM*%
%LPD*%
G04 APERTURE LIST*
%ADD10C,2.000000*%
%ADD11R,3.480000X1.846667*%
%ADD12C,1.000000*%
G04 APERTURE END LIST*
D10*
X114000000Y-98500000D03*
X121000000Y-116500000D03*
X114000000Y-102500000D03*
X114000000Y-106500000D03*
X114000000Y-110500000D03*
X114000000Y-114500000D03*
X121000000Y-124500000D03*
X121000000Y-100500000D03*
X71000000Y-112500000D03*
X71000000Y-104500000D03*
X114000000Y-126500000D03*
X114000000Y-122500000D03*
X71000000Y-108500000D03*
X114000000Y-118500000D03*
X96000000Y-108500000D03*
X96000000Y-112500000D03*
X121000000Y-120500000D03*
D11*
X128000000Y-122195000D03*
X128000000Y-119425000D03*
X128000000Y-116655000D03*
X128000000Y-113885000D03*
X128000000Y-111115000D03*
X128000000Y-108345000D03*
X128000000Y-105575000D03*
X128000000Y-102805000D03*
D10*
X96000000Y-100500000D03*
D11*
X107000000Y-122195000D03*
X107000000Y-119425000D03*
X107000000Y-116655000D03*
X107000000Y-113885000D03*
X107000000Y-111115000D03*
X107000000Y-108345000D03*
X107000000Y-105575000D03*
X107000000Y-102805000D03*
D10*
X89000000Y-126500000D03*
X121000000Y-104500000D03*
X121000000Y-108500000D03*
X71000000Y-116500000D03*
X121000000Y-112500000D03*
X96000000Y-104500000D03*
X89000000Y-102500000D03*
D11*
X82000000Y-122195000D03*
X82000000Y-119425000D03*
X82000000Y-116655000D03*
X82000000Y-113885000D03*
X82000000Y-111115000D03*
X82000000Y-108345000D03*
X82000000Y-105575000D03*
X82000000Y-102805000D03*
X103000000Y-122195000D03*
X103000000Y-119425000D03*
X103000000Y-116655000D03*
X103000000Y-113885000D03*
X103000000Y-111115000D03*
X103000000Y-108345000D03*
X103000000Y-105575000D03*
X103000000Y-102805000D03*
D10*
X89000000Y-114500000D03*
X89000000Y-98500000D03*
X89000000Y-110500000D03*
X46000000Y-120500000D03*
X64000000Y-98500000D03*
X96000000Y-120500000D03*
X89000000Y-106500000D03*
X64000000Y-102500000D03*
X96000000Y-124500000D03*
X89000000Y-118500000D03*
X46000000Y-104500000D03*
X96000000Y-116500000D03*
X71000000Y-100500000D03*
X89000000Y-122500000D03*
X71000000Y-124500000D03*
X39000000Y-126500000D03*
D11*
X32000000Y-122195000D03*
X32000000Y-119425000D03*
X32000000Y-116655000D03*
X32000000Y-113885000D03*
X32000000Y-111115000D03*
X32000000Y-108345000D03*
X32000000Y-105575000D03*
X32000000Y-102805000D03*
D10*
X39000000Y-114500000D03*
D11*
X53000000Y-122195000D03*
X53000000Y-119425000D03*
X53000000Y-116655000D03*
X53000000Y-113885000D03*
X53000000Y-111115000D03*
X53000000Y-108345000D03*
X53000000Y-105575000D03*
X53000000Y-102805000D03*
D10*
X39000000Y-118500000D03*
X39000000Y-122500000D03*
X64000000Y-126500000D03*
X39000000Y-110500000D03*
D11*
X78000000Y-122195000D03*
X78000000Y-119425000D03*
X78000000Y-116655000D03*
X78000000Y-113885000D03*
X78000000Y-111115000D03*
X78000000Y-108345000D03*
X78000000Y-105575000D03*
X78000000Y-102805000D03*
X57000000Y-122195000D03*
X57000000Y-119425000D03*
X57000000Y-116655000D03*
X57000000Y-113885000D03*
X57000000Y-111115000D03*
X57000000Y-108345000D03*
X57000000Y-105575000D03*
X57000000Y-102805000D03*
D10*
X39000000Y-98500000D03*
X64000000Y-114500000D03*
X46000000Y-116500000D03*
X46000000Y-108500000D03*
X64000000Y-118500000D03*
X46000000Y-124500000D03*
X39000000Y-102500000D03*
X39000000Y-106500000D03*
X46000000Y-100500000D03*
X64000000Y-106500000D03*
X46000000Y-112500000D03*
X64000000Y-122500000D03*
X71000000Y-120500000D03*
X64000000Y-110500000D03*
X114000000Y-73500000D03*
X121000000Y-83500000D03*
X114000000Y-69500000D03*
X114000000Y-65500000D03*
X121000000Y-67500000D03*
X121000000Y-91500000D03*
X114000000Y-77500000D03*
X114000000Y-81500000D03*
X121000000Y-71500000D03*
X121000000Y-75500000D03*
X121000000Y-79500000D03*
X121000000Y-87500000D03*
X114000000Y-93500000D03*
D11*
X128000000Y-69805000D03*
X128000000Y-72575000D03*
X128000000Y-75345000D03*
X128000000Y-78115000D03*
X128000000Y-80885000D03*
X128000000Y-83655000D03*
X128000000Y-86425000D03*
X128000000Y-89195000D03*
D10*
X114000000Y-89500000D03*
X96000000Y-67500000D03*
D11*
X107000000Y-69805000D03*
X107000000Y-72575000D03*
X107000000Y-75345000D03*
X107000000Y-78115000D03*
X107000000Y-80885000D03*
X107000000Y-83655000D03*
X107000000Y-86425000D03*
X107000000Y-89195000D03*
D10*
X96000000Y-71500000D03*
X114000000Y-85500000D03*
X96000000Y-79500000D03*
X96000000Y-75500000D03*
X71000000Y-75500000D03*
X71000000Y-83500000D03*
X71000000Y-79500000D03*
X71000000Y-71500000D03*
X89000000Y-93500000D03*
X96000000Y-91500000D03*
X89000000Y-69500000D03*
X96000000Y-83500000D03*
X89000000Y-65500000D03*
X89000000Y-85500000D03*
D11*
X82000000Y-69805000D03*
X82000000Y-72575000D03*
X82000000Y-75345000D03*
X82000000Y-78115000D03*
X82000000Y-80885000D03*
X82000000Y-83655000D03*
X82000000Y-86425000D03*
X82000000Y-89195000D03*
D10*
X96000000Y-87500000D03*
X71000000Y-67500000D03*
X89000000Y-73500000D03*
D11*
X103000000Y-69805000D03*
X103000000Y-72575000D03*
X103000000Y-75345000D03*
X103000000Y-78115000D03*
X103000000Y-80885000D03*
X103000000Y-83655000D03*
X103000000Y-86425000D03*
X103000000Y-89195000D03*
D10*
X89000000Y-81500000D03*
X89000000Y-77500000D03*
X89000000Y-89500000D03*
X71000000Y-91500000D03*
X64000000Y-65500000D03*
X46000000Y-87500000D03*
X46000000Y-71500000D03*
X64000000Y-69500000D03*
X64000000Y-77500000D03*
D11*
X57000000Y-69805000D03*
X57000000Y-72575000D03*
X57000000Y-75345000D03*
X57000000Y-78115000D03*
X57000000Y-80885000D03*
X57000000Y-83655000D03*
X57000000Y-86425000D03*
X57000000Y-89195000D03*
D10*
X64000000Y-89500000D03*
X64000000Y-81500000D03*
X64000000Y-93500000D03*
D11*
X78000000Y-69805000D03*
X78000000Y-72575000D03*
X78000000Y-75345000D03*
X78000000Y-78115000D03*
X78000000Y-80885000D03*
X78000000Y-83655000D03*
X78000000Y-86425000D03*
X78000000Y-89195000D03*
D10*
X46000000Y-83500000D03*
X46000000Y-75500000D03*
X46000000Y-67500000D03*
X64000000Y-85500000D03*
X64000000Y-73500000D03*
X46000000Y-79500000D03*
X71000000Y-87500000D03*
X46000000Y-91500000D03*
X39000000Y-65500000D03*
X39000000Y-69500000D03*
X39000000Y-73500000D03*
X39000000Y-77500000D03*
D11*
X32000000Y-69805000D03*
X32000000Y-72575000D03*
X32000000Y-75345000D03*
X32000000Y-78115000D03*
X32000000Y-80885000D03*
X32000000Y-83655000D03*
X32000000Y-86425000D03*
X32000000Y-89195000D03*
D10*
X39000000Y-81500000D03*
D11*
X53000000Y-69805000D03*
X53000000Y-72575000D03*
X53000000Y-75345000D03*
X53000000Y-78115000D03*
X53000000Y-80885000D03*
X53000000Y-83655000D03*
X53000000Y-86425000D03*
X53000000Y-89195000D03*
D10*
X39000000Y-85500000D03*
X39000000Y-89500000D03*
X39000000Y-93500000D03*
D11*
X32000000Y-56195000D03*
X32000000Y-53425000D03*
X32000000Y-50655000D03*
X32000000Y-47885000D03*
X32000000Y-45115000D03*
X32000000Y-42345000D03*
X32000000Y-39575000D03*
X32000000Y-36805000D03*
X53000000Y-56195000D03*
X53000000Y-53425000D03*
X53000000Y-50655000D03*
X53000000Y-47885000D03*
X53000000Y-45115000D03*
X53000000Y-42345000D03*
X53000000Y-39575000D03*
X53000000Y-36805000D03*
D10*
X39000000Y-60500000D03*
X39000000Y-56500000D03*
X39000000Y-52500000D03*
X39000000Y-48500000D03*
X39000000Y-44500000D03*
X39000000Y-40500000D03*
X39000000Y-36500000D03*
X39000000Y-32500000D03*
X46000000Y-58500000D03*
X46000000Y-54500000D03*
X46000000Y-50500000D03*
X46000000Y-46500000D03*
X46000000Y-42500000D03*
X46000000Y-38500000D03*
X46000000Y-34500000D03*
D11*
X57000000Y-56195000D03*
X57000000Y-53425000D03*
X57000000Y-50655000D03*
X57000000Y-47885000D03*
X57000000Y-45115000D03*
X57000000Y-42345000D03*
X57000000Y-39575000D03*
X57000000Y-36805000D03*
X78000000Y-56195000D03*
X78000000Y-53425000D03*
X78000000Y-50655000D03*
X78000000Y-47885000D03*
X78000000Y-45115000D03*
X78000000Y-42345000D03*
X78000000Y-39575000D03*
X78000000Y-36805000D03*
D10*
X64000000Y-60500000D03*
X64000000Y-56500000D03*
X64000000Y-52500000D03*
X64000000Y-48500000D03*
X64000000Y-44500000D03*
X64000000Y-40500000D03*
X64000000Y-36500000D03*
X64000000Y-32500000D03*
X71000000Y-58500000D03*
X71000000Y-54500000D03*
X71000000Y-50500000D03*
X71000000Y-46500000D03*
X71000000Y-42500000D03*
X71000000Y-38500000D03*
X71000000Y-34500000D03*
D11*
X82000000Y-56195000D03*
X82000000Y-53425000D03*
X82000000Y-50655000D03*
X82000000Y-47885000D03*
X82000000Y-45115000D03*
X82000000Y-42345000D03*
X82000000Y-39575000D03*
X82000000Y-36805000D03*
X103000000Y-56195000D03*
X103000000Y-53425000D03*
X103000000Y-50655000D03*
X103000000Y-47885000D03*
X103000000Y-45115000D03*
X103000000Y-42345000D03*
X103000000Y-39575000D03*
X103000000Y-36805000D03*
D10*
X89000000Y-60500000D03*
X89000000Y-56500000D03*
X89000000Y-52500000D03*
X89000000Y-48500000D03*
X89000000Y-44500000D03*
X89000000Y-40500000D03*
X89000000Y-36500000D03*
X89000000Y-32500000D03*
X96000000Y-58500000D03*
X96000000Y-54500000D03*
X96000000Y-50500000D03*
X96000000Y-46500000D03*
X96000000Y-42500000D03*
X96000000Y-38500000D03*
X96000000Y-34500000D03*
D11*
X107000000Y-56195000D03*
X107000000Y-53425000D03*
X107000000Y-50655000D03*
X107000000Y-47885000D03*
X107000000Y-45115000D03*
X107000000Y-42345000D03*
X107000000Y-39575000D03*
X107000000Y-36805000D03*
X128000000Y-56195000D03*
X128000000Y-53425000D03*
X128000000Y-50655000D03*
X128000000Y-47885000D03*
X128000000Y-45115000D03*
X128000000Y-42345000D03*
X128000000Y-39575000D03*
X128000000Y-36805000D03*
D10*
X114000000Y-60500000D03*
X114000000Y-56500000D03*
X114000000Y-52500000D03*
X114000000Y-48500000D03*
X114000000Y-44500000D03*
X114000000Y-40500000D03*
X114000000Y-36500000D03*
X114000000Y-32500000D03*
X121000000Y-58500000D03*
X121000000Y-54500000D03*
X121000000Y-50500000D03*
X121000000Y-46500000D03*
X121000000Y-42500000D03*
X121000000Y-38500000D03*
X121000000Y-34500000D03*
D12*
X34695000Y-56195000D02*
X39000000Y-60500000D01*
X32000000Y-56195000D02*
X34695000Y-56195000D01*
X50805000Y-56195000D02*
X53000000Y-56195000D01*
X46516002Y-60483998D02*
X50805000Y-56195000D01*
X39000000Y-60500000D02*
X46516002Y-60500000D01*
X46516002Y-60500000D02*
X46516002Y-60483998D01*
X59695000Y-56195000D02*
X64000000Y-60500000D01*
X57000000Y-56195000D02*
X59695000Y-56195000D01*
X75805000Y-56195000D02*
X78000000Y-56195000D01*
X71516002Y-60483998D02*
X75805000Y-56195000D01*
X64000000Y-60500000D02*
X71516002Y-60500000D01*
X71516002Y-60500000D02*
X71516002Y-60483998D01*
X84695000Y-56195000D02*
X89000000Y-60500000D01*
X82000000Y-56195000D02*
X84695000Y-56195000D01*
X100805000Y-56195000D02*
X103000000Y-56195000D01*
X96516002Y-60483998D02*
X100805000Y-56195000D01*
X89000000Y-60500000D02*
X96516002Y-60500000D01*
X96516002Y-60500000D02*
X96516002Y-60483998D01*
X109695000Y-56195000D02*
X114000000Y-60500000D01*
X107000000Y-56195000D02*
X109695000Y-56195000D01*
X125805000Y-56195000D02*
X128000000Y-56195000D01*
X121516002Y-60483998D02*
X125805000Y-56195000D01*
X114000000Y-60500000D02*
X121516002Y-60500000D01*
X121516002Y-60500000D02*
X121516002Y-60483998D01*
X84695000Y-89195000D02*
X89000000Y-93500000D01*
X82000000Y-89195000D02*
X84695000Y-89195000D01*
X96516002Y-93483998D02*
X100805000Y-89195000D01*
X89000000Y-93500000D02*
X96516002Y-93500000D01*
X100805000Y-89195000D02*
X103000000Y-89195000D01*
X96516002Y-93500000D02*
X96516002Y-93483998D01*
X50805000Y-89195000D02*
X53000000Y-89195000D01*
X39000000Y-93500000D02*
X46516002Y-93500000D01*
X34695000Y-89195000D02*
X39000000Y-93500000D01*
X46516002Y-93500000D02*
X46516002Y-93483998D01*
X46516002Y-93483998D02*
X50805000Y-89195000D01*
X32000000Y-89195000D02*
X34695000Y-89195000D01*
X64000000Y-93500000D02*
X71516002Y-93500000D01*
X59695000Y-89195000D02*
X64000000Y-93500000D01*
X57000000Y-89195000D02*
X59695000Y-89195000D01*
X75805000Y-89195000D02*
X78000000Y-89195000D01*
X71516002Y-93483998D02*
X75805000Y-89195000D01*
X71516002Y-93500000D02*
X71516002Y-93483998D01*
X107000000Y-89195000D02*
X109695000Y-89195000D01*
X121516002Y-93483998D02*
X125805000Y-89195000D01*
X121516002Y-93500000D02*
X121516002Y-93483998D01*
X125805000Y-89195000D02*
X128000000Y-89195000D01*
X114000000Y-93500000D02*
X121516002Y-93500000D01*
X109695000Y-89195000D02*
X114000000Y-93500000D01*
X84695000Y-122195000D02*
X89000000Y-126500000D01*
X96516002Y-126500000D02*
X96516002Y-126483998D01*
X96516002Y-126483998D02*
X100805000Y-122195000D01*
X89000000Y-126500000D02*
X96516002Y-126500000D01*
X82000000Y-122195000D02*
X84695000Y-122195000D01*
X100805000Y-122195000D02*
X103000000Y-122195000D01*
X50805000Y-122195000D02*
X53000000Y-122195000D01*
X46516002Y-126500000D02*
X46516002Y-126483998D01*
X34695000Y-122195000D02*
X39000000Y-126500000D01*
X39000000Y-126500000D02*
X46516002Y-126500000D01*
X46516002Y-126483998D02*
X50805000Y-122195000D01*
X32000000Y-122195000D02*
X34695000Y-122195000D01*
X71516002Y-126483998D02*
X75805000Y-122195000D01*
X75805000Y-122195000D02*
X78000000Y-122195000D01*
X59695000Y-122195000D02*
X64000000Y-126500000D01*
X57000000Y-122195000D02*
X59695000Y-122195000D01*
X64000000Y-126500000D02*
X71516002Y-126500000D01*
X71516002Y-126500000D02*
X71516002Y-126483998D01*
X114000000Y-126500000D02*
X121516002Y-126500000D01*
X121516002Y-126500000D02*
X121516002Y-126483998D01*
X125805000Y-122195000D02*
X128000000Y-122195000D01*
X109695000Y-122195000D02*
X114000000Y-126500000D01*
X121516002Y-126483998D02*
X125805000Y-122195000D01*
X107000000Y-122195000D02*
X109695000Y-122195000D01*
X47185000Y-56500000D02*
X40414213Y-56500000D01*
X50260000Y-53425000D02*
X47185000Y-56500000D01*
X40414213Y-56500000D02*
X39000000Y-56500000D01*
X53000000Y-53425000D02*
X50260000Y-53425000D01*
X35925000Y-53425000D02*
X39000000Y-56500000D01*
X32000000Y-53425000D02*
X35925000Y-53425000D01*
X72185000Y-56500000D02*
X65414213Y-56500000D01*
X75260000Y-53425000D02*
X72185000Y-56500000D01*
X65414213Y-56500000D02*
X64000000Y-56500000D01*
X78000000Y-53425000D02*
X75260000Y-53425000D01*
X60925000Y-53425000D02*
X64000000Y-56500000D01*
X57000000Y-53425000D02*
X60925000Y-53425000D01*
X97185000Y-56500000D02*
X90414213Y-56500000D01*
X100260000Y-53425000D02*
X97185000Y-56500000D01*
X90414213Y-56500000D02*
X89000000Y-56500000D01*
X103000000Y-53425000D02*
X100260000Y-53425000D01*
X85925000Y-53425000D02*
X89000000Y-56500000D01*
X82000000Y-53425000D02*
X85925000Y-53425000D01*
X122185000Y-56500000D02*
X115414213Y-56500000D01*
X125260000Y-53425000D02*
X122185000Y-56500000D01*
X115414213Y-56500000D02*
X114000000Y-56500000D01*
X128000000Y-53425000D02*
X125260000Y-53425000D01*
X110925000Y-53425000D02*
X114000000Y-56500000D01*
X107000000Y-53425000D02*
X110925000Y-53425000D01*
X100260000Y-86425000D02*
X97185000Y-89500000D01*
X85925000Y-86425000D02*
X89000000Y-89500000D01*
X90414213Y-89500000D02*
X89000000Y-89500000D01*
X82000000Y-86425000D02*
X85925000Y-86425000D01*
X103000000Y-86425000D02*
X100260000Y-86425000D01*
X97185000Y-89500000D02*
X90414213Y-89500000D01*
X32000000Y-86425000D02*
X35925000Y-86425000D01*
X53000000Y-86425000D02*
X50260000Y-86425000D01*
X50260000Y-86425000D02*
X47185000Y-89500000D01*
X47185000Y-89500000D02*
X40414213Y-89500000D01*
X40414213Y-89500000D02*
X39000000Y-89500000D01*
X35925000Y-86425000D02*
X39000000Y-89500000D01*
X60925000Y-86425000D02*
X64000000Y-89500000D01*
X65414213Y-89500000D02*
X64000000Y-89500000D01*
X78000000Y-86425000D02*
X75260000Y-86425000D01*
X72185000Y-89500000D02*
X65414213Y-89500000D01*
X57000000Y-86425000D02*
X60925000Y-86425000D01*
X75260000Y-86425000D02*
X72185000Y-89500000D01*
X128000000Y-86425000D02*
X125260000Y-86425000D01*
X107000000Y-86425000D02*
X110925000Y-86425000D01*
X125260000Y-86425000D02*
X122185000Y-89500000D01*
X122185000Y-89500000D02*
X115414213Y-89500000D01*
X110925000Y-86425000D02*
X114000000Y-89500000D01*
X115414213Y-89500000D02*
X114000000Y-89500000D01*
X100260000Y-119425000D02*
X97185000Y-122500000D01*
X97185000Y-122500000D02*
X90414213Y-122500000D01*
X90414213Y-122500000D02*
X89000000Y-122500000D01*
X82000000Y-119425000D02*
X85925000Y-119425000D01*
X85925000Y-119425000D02*
X89000000Y-122500000D01*
X103000000Y-119425000D02*
X100260000Y-119425000D01*
X35925000Y-119425000D02*
X39000000Y-122500000D01*
X53000000Y-119425000D02*
X50260000Y-119425000D01*
X50260000Y-119425000D02*
X47185000Y-122500000D01*
X47185000Y-122500000D02*
X40414213Y-122500000D01*
X32000000Y-119425000D02*
X35925000Y-119425000D01*
X40414213Y-122500000D02*
X39000000Y-122500000D01*
X75260000Y-119425000D02*
X72185000Y-122500000D01*
X72185000Y-122500000D02*
X65414213Y-122500000D01*
X60925000Y-119425000D02*
X64000000Y-122500000D01*
X65414213Y-122500000D02*
X64000000Y-122500000D01*
X78000000Y-119425000D02*
X75260000Y-119425000D01*
X57000000Y-119425000D02*
X60925000Y-119425000D01*
X110925000Y-119425000D02*
X114000000Y-122500000D01*
X128000000Y-119425000D02*
X125260000Y-119425000D01*
X107000000Y-119425000D02*
X110925000Y-119425000D01*
X122185000Y-122500000D02*
X115414213Y-122500000D01*
X125260000Y-119425000D02*
X122185000Y-122500000D01*
X115414213Y-122500000D02*
X114000000Y-122500000D01*
X40414213Y-52500000D02*
X39000000Y-52500000D01*
X48415000Y-52500000D02*
X40414213Y-52500000D01*
X50260000Y-50655000D02*
X48415000Y-52500000D01*
X53000000Y-50655000D02*
X50260000Y-50655000D01*
X37155000Y-50655000D02*
X39000000Y-52500000D01*
X32000000Y-50655000D02*
X37155000Y-50655000D01*
X65414213Y-52500000D02*
X64000000Y-52500000D01*
X73415000Y-52500000D02*
X65414213Y-52500000D01*
X75260000Y-50655000D02*
X73415000Y-52500000D01*
X78000000Y-50655000D02*
X75260000Y-50655000D01*
X62155000Y-50655000D02*
X64000000Y-52500000D01*
X57000000Y-50655000D02*
X62155000Y-50655000D01*
X90414213Y-52500000D02*
X89000000Y-52500000D01*
X98415000Y-52500000D02*
X90414213Y-52500000D01*
X100260000Y-50655000D02*
X98415000Y-52500000D01*
X103000000Y-50655000D02*
X100260000Y-50655000D01*
X87155000Y-50655000D02*
X89000000Y-52500000D01*
X82000000Y-50655000D02*
X87155000Y-50655000D01*
X115414213Y-52500000D02*
X114000000Y-52500000D01*
X123415000Y-52500000D02*
X115414213Y-52500000D01*
X125260000Y-50655000D02*
X123415000Y-52500000D01*
X128000000Y-50655000D02*
X125260000Y-50655000D01*
X112155000Y-50655000D02*
X114000000Y-52500000D01*
X107000000Y-50655000D02*
X112155000Y-50655000D01*
X98415000Y-85500000D02*
X90414213Y-85500000D01*
X100260000Y-83655000D02*
X98415000Y-85500000D01*
X103000000Y-83655000D02*
X100260000Y-83655000D01*
X87155000Y-83655000D02*
X89000000Y-85500000D01*
X90414213Y-85500000D02*
X89000000Y-85500000D01*
X82000000Y-83655000D02*
X87155000Y-83655000D01*
X40414213Y-85500000D02*
X39000000Y-85500000D01*
X48415000Y-85500000D02*
X40414213Y-85500000D01*
X37155000Y-83655000D02*
X39000000Y-85500000D01*
X53000000Y-83655000D02*
X50260000Y-83655000D01*
X32000000Y-83655000D02*
X37155000Y-83655000D01*
X50260000Y-83655000D02*
X48415000Y-85500000D01*
X62155000Y-83655000D02*
X64000000Y-85500000D01*
X57000000Y-83655000D02*
X62155000Y-83655000D01*
X75260000Y-83655000D02*
X73415000Y-85500000D01*
X65414213Y-85500000D02*
X64000000Y-85500000D01*
X73415000Y-85500000D02*
X65414213Y-85500000D01*
X78000000Y-83655000D02*
X75260000Y-83655000D01*
X112155000Y-83655000D02*
X114000000Y-85500000D01*
X123415000Y-85500000D02*
X115414213Y-85500000D01*
X125260000Y-83655000D02*
X123415000Y-85500000D01*
X128000000Y-83655000D02*
X125260000Y-83655000D01*
X107000000Y-83655000D02*
X112155000Y-83655000D01*
X115414213Y-85500000D02*
X114000000Y-85500000D01*
X98415000Y-118500000D02*
X90414213Y-118500000D01*
X103000000Y-116655000D02*
X100260000Y-116655000D01*
X87155000Y-116655000D02*
X89000000Y-118500000D01*
X100260000Y-116655000D02*
X98415000Y-118500000D01*
X90414213Y-118500000D02*
X89000000Y-118500000D01*
X82000000Y-116655000D02*
X87155000Y-116655000D01*
X32000000Y-116655000D02*
X37155000Y-116655000D01*
X53000000Y-116655000D02*
X50260000Y-116655000D01*
X48415000Y-118500000D02*
X40414213Y-118500000D01*
X50260000Y-116655000D02*
X48415000Y-118500000D01*
X40414213Y-118500000D02*
X39000000Y-118500000D01*
X37155000Y-116655000D02*
X39000000Y-118500000D01*
X65414213Y-118500000D02*
X64000000Y-118500000D01*
X78000000Y-116655000D02*
X75260000Y-116655000D01*
X57000000Y-116655000D02*
X62155000Y-116655000D01*
X62155000Y-116655000D02*
X64000000Y-118500000D01*
X75260000Y-116655000D02*
X73415000Y-118500000D01*
X73415000Y-118500000D02*
X65414213Y-118500000D01*
X112155000Y-116655000D02*
X114000000Y-118500000D01*
X128000000Y-116655000D02*
X125260000Y-116655000D01*
X107000000Y-116655000D02*
X112155000Y-116655000D01*
X125260000Y-116655000D02*
X123415000Y-118500000D01*
X123415000Y-118500000D02*
X115414213Y-118500000D01*
X115414213Y-118500000D02*
X114000000Y-118500000D01*
X40414213Y-48500000D02*
X39000000Y-48500000D01*
X46516002Y-48500000D02*
X40414213Y-48500000D01*
X47131002Y-47885000D02*
X46516002Y-48500000D01*
X53000000Y-47885000D02*
X47131002Y-47885000D01*
X38385000Y-47885000D02*
X39000000Y-48500000D01*
X32000000Y-47885000D02*
X38385000Y-47885000D01*
X65414213Y-48500000D02*
X64000000Y-48500000D01*
X71516002Y-48500000D02*
X65414213Y-48500000D01*
X72131002Y-47885000D02*
X71516002Y-48500000D01*
X78000000Y-47885000D02*
X72131002Y-47885000D01*
X63385000Y-47885000D02*
X64000000Y-48500000D01*
X57000000Y-47885000D02*
X63385000Y-47885000D01*
X90414213Y-48500000D02*
X89000000Y-48500000D01*
X96516002Y-48500000D02*
X90414213Y-48500000D01*
X97131002Y-47885000D02*
X96516002Y-48500000D01*
X103000000Y-47885000D02*
X97131002Y-47885000D01*
X88385000Y-47885000D02*
X89000000Y-48500000D01*
X82000000Y-47885000D02*
X88385000Y-47885000D01*
X115414213Y-48500000D02*
X114000000Y-48500000D01*
X121516002Y-48500000D02*
X115414213Y-48500000D01*
X122131002Y-47885000D02*
X121516002Y-48500000D01*
X128000000Y-47885000D02*
X122131002Y-47885000D01*
X113385000Y-47885000D02*
X114000000Y-48500000D01*
X107000000Y-47885000D02*
X113385000Y-47885000D01*
X32000000Y-80885000D02*
X38385000Y-80885000D01*
X82000000Y-80885000D02*
X88385000Y-80885000D01*
X97131002Y-80885000D02*
X96516002Y-81500000D01*
X103000000Y-80885000D02*
X97131002Y-80885000D01*
X96516002Y-81500000D02*
X90414213Y-81500000D01*
X88385000Y-80885000D02*
X89000000Y-81500000D01*
X90414213Y-81500000D02*
X89000000Y-81500000D01*
X72131002Y-80885000D02*
X71516002Y-81500000D01*
X78000000Y-80885000D02*
X72131002Y-80885000D01*
X63385000Y-80885000D02*
X64000000Y-81500000D01*
X71516002Y-81500000D02*
X65414213Y-81500000D01*
X57000000Y-80885000D02*
X63385000Y-80885000D01*
X65414213Y-81500000D02*
X64000000Y-81500000D01*
X40414213Y-81500000D02*
X39000000Y-81500000D01*
X46516002Y-81500000D02*
X40414213Y-81500000D01*
X47131002Y-80885000D02*
X46516002Y-81500000D01*
X53000000Y-80885000D02*
X47131002Y-80885000D01*
X38385000Y-80885000D02*
X39000000Y-81500000D01*
X113385000Y-80885000D02*
X114000000Y-81500000D01*
X122131002Y-80885000D02*
X121516002Y-81500000D01*
X128000000Y-80885000D02*
X122131002Y-80885000D01*
X115414213Y-81500000D02*
X114000000Y-81500000D01*
X121516002Y-81500000D02*
X115414213Y-81500000D01*
X107000000Y-80885000D02*
X113385000Y-80885000D01*
X32000000Y-113885000D02*
X38385000Y-113885000D01*
X82000000Y-113885000D02*
X88385000Y-113885000D01*
X78000000Y-113885000D02*
X72131002Y-113885000D01*
X88385000Y-113885000D02*
X89000000Y-114500000D01*
X103000000Y-113885000D02*
X97131002Y-113885000D01*
X72131002Y-113885000D02*
X71516002Y-114500000D01*
X97131002Y-113885000D02*
X96516002Y-114500000D01*
X57000000Y-113885000D02*
X63385000Y-113885000D01*
X96516002Y-114500000D02*
X90414213Y-114500000D01*
X71516002Y-114500000D02*
X65414213Y-114500000D01*
X90414213Y-114500000D02*
X89000000Y-114500000D01*
X63385000Y-113885000D02*
X64000000Y-114500000D01*
X65414213Y-114500000D02*
X64000000Y-114500000D01*
X47131002Y-113885000D02*
X46516002Y-114500000D01*
X53000000Y-113885000D02*
X47131002Y-113885000D01*
X40414213Y-114500000D02*
X39000000Y-114500000D01*
X46516002Y-114500000D02*
X40414213Y-114500000D01*
X38385000Y-113885000D02*
X39000000Y-114500000D01*
X128000000Y-113885000D02*
X122131002Y-113885000D01*
X121516002Y-114500000D02*
X115414213Y-114500000D01*
X122131002Y-113885000D02*
X121516002Y-114500000D01*
X107000000Y-113885000D02*
X113385000Y-113885000D01*
X113385000Y-113885000D02*
X114000000Y-114500000D01*
X115414213Y-114500000D02*
X114000000Y-114500000D01*
X40414213Y-44500000D02*
X39000000Y-44500000D01*
X46500000Y-44500000D02*
X40414213Y-44500000D01*
X47115000Y-45115000D02*
X46500000Y-44500000D01*
X53000000Y-45115000D02*
X47115000Y-45115000D01*
X38385000Y-45115000D02*
X39000000Y-44500000D01*
X32000000Y-45115000D02*
X38385000Y-45115000D01*
X65414213Y-44500000D02*
X64000000Y-44500000D01*
X71500000Y-44500000D02*
X65414213Y-44500000D01*
X72115000Y-45115000D02*
X71500000Y-44500000D01*
X78000000Y-45115000D02*
X72115000Y-45115000D01*
X63385000Y-45115000D02*
X64000000Y-44500000D01*
X57000000Y-45115000D02*
X63385000Y-45115000D01*
X90414213Y-44500000D02*
X89000000Y-44500000D01*
X96500000Y-44500000D02*
X90414213Y-44500000D01*
X97115000Y-45115000D02*
X96500000Y-44500000D01*
X103000000Y-45115000D02*
X97115000Y-45115000D01*
X88385000Y-45115000D02*
X89000000Y-44500000D01*
X82000000Y-45115000D02*
X88385000Y-45115000D01*
X115414213Y-44500000D02*
X114000000Y-44500000D01*
X121500000Y-44500000D02*
X115414213Y-44500000D01*
X122115000Y-45115000D02*
X121500000Y-44500000D01*
X128000000Y-45115000D02*
X122115000Y-45115000D01*
X113385000Y-45115000D02*
X114000000Y-44500000D01*
X107000000Y-45115000D02*
X113385000Y-45115000D01*
X103000000Y-78115000D02*
X97115000Y-78115000D01*
X88385000Y-78115000D02*
X89000000Y-77500000D01*
X46500000Y-77500000D02*
X40414213Y-77500000D01*
X53000000Y-78115000D02*
X47115000Y-78115000D01*
X40414213Y-77500000D02*
X39000000Y-77500000D01*
X47115000Y-78115000D02*
X46500000Y-77500000D01*
X38385000Y-78115000D02*
X39000000Y-77500000D01*
X32000000Y-78115000D02*
X38385000Y-78115000D01*
X90414213Y-77500000D02*
X89000000Y-77500000D01*
X97115000Y-78115000D02*
X96500000Y-77500000D01*
X96500000Y-77500000D02*
X90414213Y-77500000D01*
X63385000Y-78115000D02*
X64000000Y-77500000D01*
X57000000Y-78115000D02*
X63385000Y-78115000D01*
X65414213Y-77500000D02*
X64000000Y-77500000D01*
X72115000Y-78115000D02*
X71500000Y-77500000D01*
X71500000Y-77500000D02*
X65414213Y-77500000D01*
X78000000Y-78115000D02*
X72115000Y-78115000D01*
X82000000Y-78115000D02*
X88385000Y-78115000D01*
X121500000Y-77500000D02*
X115414213Y-77500000D01*
X122115000Y-78115000D02*
X121500000Y-77500000D01*
X128000000Y-78115000D02*
X122115000Y-78115000D01*
X113385000Y-78115000D02*
X114000000Y-77500000D01*
X115414213Y-77500000D02*
X114000000Y-77500000D01*
X107000000Y-78115000D02*
X113385000Y-78115000D01*
X88385000Y-111115000D02*
X89000000Y-110500000D01*
X103000000Y-111115000D02*
X97115000Y-111115000D01*
X46500000Y-110500000D02*
X40414213Y-110500000D01*
X65414213Y-110500000D02*
X64000000Y-110500000D01*
X78000000Y-111115000D02*
X72115000Y-111115000D01*
X71500000Y-110500000D02*
X65414213Y-110500000D01*
X97115000Y-111115000D02*
X96500000Y-110500000D01*
X40414213Y-110500000D02*
X39000000Y-110500000D01*
X47115000Y-111115000D02*
X46500000Y-110500000D01*
X53000000Y-111115000D02*
X47115000Y-111115000D01*
X96500000Y-110500000D02*
X90414213Y-110500000D01*
X63385000Y-111115000D02*
X64000000Y-110500000D01*
X38385000Y-111115000D02*
X39000000Y-110500000D01*
X32000000Y-111115000D02*
X38385000Y-111115000D01*
X90414213Y-110500000D02*
X89000000Y-110500000D01*
X57000000Y-111115000D02*
X63385000Y-111115000D01*
X72115000Y-111115000D02*
X71500000Y-110500000D01*
X82000000Y-111115000D02*
X88385000Y-111115000D01*
X121500000Y-110500000D02*
X115414213Y-110500000D01*
X122115000Y-111115000D02*
X121500000Y-110500000D01*
X128000000Y-111115000D02*
X122115000Y-111115000D01*
X113385000Y-111115000D02*
X114000000Y-110500000D01*
X115414213Y-110500000D02*
X114000000Y-110500000D01*
X107000000Y-111115000D02*
X113385000Y-111115000D01*
X40414213Y-40500000D02*
X39000000Y-40500000D01*
X48415000Y-40500000D02*
X40414213Y-40500000D01*
X50260000Y-42345000D02*
X48415000Y-40500000D01*
X53000000Y-42345000D02*
X50260000Y-42345000D01*
X37155000Y-42345000D02*
X39000000Y-40500000D01*
X32000000Y-42345000D02*
X37155000Y-42345000D01*
X65414213Y-40500000D02*
X64000000Y-40500000D01*
X73415000Y-40500000D02*
X65414213Y-40500000D01*
X75260000Y-42345000D02*
X73415000Y-40500000D01*
X78000000Y-42345000D02*
X75260000Y-42345000D01*
X62155000Y-42345000D02*
X64000000Y-40500000D01*
X57000000Y-42345000D02*
X62155000Y-42345000D01*
X90414213Y-40500000D02*
X89000000Y-40500000D01*
X98415000Y-40500000D02*
X90414213Y-40500000D01*
X100260000Y-42345000D02*
X98415000Y-40500000D01*
X103000000Y-42345000D02*
X100260000Y-42345000D01*
X87155000Y-42345000D02*
X89000000Y-40500000D01*
X82000000Y-42345000D02*
X87155000Y-42345000D01*
X115414213Y-40500000D02*
X114000000Y-40500000D01*
X123415000Y-40500000D02*
X115414213Y-40500000D01*
X125260000Y-42345000D02*
X123415000Y-40500000D01*
X128000000Y-42345000D02*
X125260000Y-42345000D01*
X112155000Y-42345000D02*
X114000000Y-40500000D01*
X107000000Y-42345000D02*
X112155000Y-42345000D01*
X32000000Y-75345000D02*
X37155000Y-75345000D01*
X40414213Y-73500000D02*
X39000000Y-73500000D01*
X48415000Y-73500000D02*
X40414213Y-73500000D01*
X50260000Y-75345000D02*
X48415000Y-73500000D01*
X37155000Y-75345000D02*
X39000000Y-73500000D01*
X53000000Y-75345000D02*
X50260000Y-75345000D01*
X78000000Y-75345000D02*
X75260000Y-75345000D01*
X62155000Y-75345000D02*
X64000000Y-73500000D01*
X65414213Y-73500000D02*
X64000000Y-73500000D01*
X73415000Y-73500000D02*
X65414213Y-73500000D01*
X57000000Y-75345000D02*
X62155000Y-75345000D01*
X75260000Y-75345000D02*
X73415000Y-73500000D01*
X82000000Y-75345000D02*
X87155000Y-75345000D01*
X98415000Y-73500000D02*
X90414213Y-73500000D01*
X103000000Y-75345000D02*
X100260000Y-75345000D01*
X87155000Y-75345000D02*
X89000000Y-73500000D01*
X90414213Y-73500000D02*
X89000000Y-73500000D01*
X100260000Y-75345000D02*
X98415000Y-73500000D01*
X115414213Y-73500000D02*
X114000000Y-73500000D01*
X128000000Y-75345000D02*
X125260000Y-75345000D01*
X107000000Y-75345000D02*
X112155000Y-75345000D01*
X123415000Y-73500000D02*
X115414213Y-73500000D01*
X125260000Y-75345000D02*
X123415000Y-73500000D01*
X112155000Y-75345000D02*
X114000000Y-73500000D01*
X32000000Y-108345000D02*
X37155000Y-108345000D01*
X48415000Y-106500000D02*
X40414213Y-106500000D01*
X40414213Y-106500000D02*
X39000000Y-106500000D01*
X50260000Y-108345000D02*
X48415000Y-106500000D01*
X37155000Y-108345000D02*
X39000000Y-106500000D01*
X73415000Y-106500000D02*
X65414213Y-106500000D01*
X62155000Y-108345000D02*
X64000000Y-106500000D01*
X65414213Y-106500000D02*
X64000000Y-106500000D01*
X75260000Y-108345000D02*
X73415000Y-106500000D01*
X53000000Y-108345000D02*
X50260000Y-108345000D01*
X78000000Y-108345000D02*
X75260000Y-108345000D01*
X57000000Y-108345000D02*
X62155000Y-108345000D01*
X90414213Y-106500000D02*
X89000000Y-106500000D01*
X103000000Y-108345000D02*
X100260000Y-108345000D01*
X100260000Y-108345000D02*
X98415000Y-106500000D01*
X98415000Y-106500000D02*
X90414213Y-106500000D01*
X82000000Y-108345000D02*
X87155000Y-108345000D01*
X87155000Y-108345000D02*
X89000000Y-106500000D01*
X128000000Y-108345000D02*
X125260000Y-108345000D01*
X123415000Y-106500000D02*
X115414213Y-106500000D01*
X107000000Y-108345000D02*
X112155000Y-108345000D01*
X125260000Y-108345000D02*
X123415000Y-106500000D01*
X112155000Y-108345000D02*
X114000000Y-106500000D01*
X115414213Y-106500000D02*
X114000000Y-106500000D01*
X40414213Y-36500000D02*
X39000000Y-36500000D01*
X47116000Y-36500000D02*
X40414213Y-36500000D01*
X50191000Y-39575000D02*
X47116000Y-36500000D01*
X53000000Y-39575000D02*
X50191000Y-39575000D01*
X35925000Y-39575000D02*
X39000000Y-36500000D01*
X32000000Y-39575000D02*
X35925000Y-39575000D01*
X65414213Y-36500000D02*
X64000000Y-36500000D01*
X72116000Y-36500000D02*
X65414213Y-36500000D01*
X75191000Y-39575000D02*
X72116000Y-36500000D01*
X78000000Y-39575000D02*
X75191000Y-39575000D01*
X60925000Y-39575000D02*
X64000000Y-36500000D01*
X57000000Y-39575000D02*
X60925000Y-39575000D01*
X90414213Y-36500000D02*
X89000000Y-36500000D01*
X97116000Y-36500000D02*
X90414213Y-36500000D01*
X100191000Y-39575000D02*
X97116000Y-36500000D01*
X103000000Y-39575000D02*
X100191000Y-39575000D01*
X85925000Y-39575000D02*
X89000000Y-36500000D01*
X82000000Y-39575000D02*
X85925000Y-39575000D01*
X115414213Y-36500000D02*
X114000000Y-36500000D01*
X122116000Y-36500000D02*
X115414213Y-36500000D01*
X125191000Y-39575000D02*
X122116000Y-36500000D01*
X128000000Y-39575000D02*
X125191000Y-39575000D01*
X110925000Y-39575000D02*
X114000000Y-36500000D01*
X107000000Y-39575000D02*
X110925000Y-39575000D01*
X128000000Y-72575000D02*
X125191000Y-72575000D01*
X53000000Y-72575000D02*
X50191000Y-72575000D01*
X35925000Y-72575000D02*
X39000000Y-69500000D01*
X47116000Y-69500000D02*
X40414213Y-69500000D01*
X50191000Y-72575000D02*
X47116000Y-69500000D01*
X32000000Y-72575000D02*
X35925000Y-72575000D01*
X40414213Y-69500000D02*
X39000000Y-69500000D01*
X75191000Y-72575000D02*
X72116000Y-69500000D01*
X65414213Y-69500000D02*
X64000000Y-69500000D01*
X72116000Y-69500000D02*
X65414213Y-69500000D01*
X57000000Y-72575000D02*
X60925000Y-72575000D01*
X78000000Y-72575000D02*
X75191000Y-72575000D01*
X60925000Y-72575000D02*
X64000000Y-69500000D01*
X100191000Y-72575000D02*
X97116000Y-69500000D01*
X85925000Y-72575000D02*
X89000000Y-69500000D01*
X82000000Y-72575000D02*
X85925000Y-72575000D01*
X103000000Y-72575000D02*
X100191000Y-72575000D01*
X90414213Y-69500000D02*
X89000000Y-69500000D01*
X97116000Y-69500000D02*
X90414213Y-69500000D01*
X125191000Y-72575000D02*
X122116000Y-69500000D01*
X115414213Y-69500000D02*
X114000000Y-69500000D01*
X122116000Y-69500000D02*
X115414213Y-69500000D01*
X107000000Y-72575000D02*
X110925000Y-72575000D01*
X110925000Y-72575000D02*
X114000000Y-69500000D01*
X128000000Y-105575000D02*
X125191000Y-105575000D01*
X53000000Y-105575000D02*
X50191000Y-105575000D01*
X35925000Y-105575000D02*
X39000000Y-102500000D01*
X47116000Y-102500000D02*
X40414213Y-102500000D01*
X60925000Y-105575000D02*
X64000000Y-102500000D01*
X57000000Y-105575000D02*
X60925000Y-105575000D01*
X72116000Y-102500000D02*
X65414213Y-102500000D01*
X32000000Y-105575000D02*
X35925000Y-105575000D01*
X78000000Y-105575000D02*
X75191000Y-105575000D01*
X65414213Y-102500000D02*
X64000000Y-102500000D01*
X75191000Y-105575000D02*
X72116000Y-102500000D01*
X40414213Y-102500000D02*
X39000000Y-102500000D01*
X50191000Y-105575000D02*
X47116000Y-102500000D01*
X82000000Y-105575000D02*
X85925000Y-105575000D01*
X90414213Y-102500000D02*
X89000000Y-102500000D01*
X100191000Y-105575000D02*
X97116000Y-102500000D01*
X103000000Y-105575000D02*
X100191000Y-105575000D01*
X85925000Y-105575000D02*
X89000000Y-102500000D01*
X97116000Y-102500000D02*
X90414213Y-102500000D01*
X115414213Y-102500000D02*
X114000000Y-102500000D01*
X125191000Y-105575000D02*
X122116000Y-102500000D01*
X122116000Y-102500000D02*
X115414213Y-102500000D01*
X110925000Y-105575000D02*
X114000000Y-102500000D01*
X107000000Y-105575000D02*
X110925000Y-105575000D01*
X40414213Y-32500000D02*
X39000000Y-32500000D01*
X46516002Y-32500000D02*
X40414213Y-32500000D01*
X50821002Y-36805000D02*
X46516002Y-32500000D01*
X53000000Y-36805000D02*
X50821002Y-36805000D01*
X34695000Y-36805000D02*
X39000000Y-32500000D01*
X32000000Y-36805000D02*
X34695000Y-36805000D01*
X65414213Y-32500000D02*
X64000000Y-32500000D01*
X71516002Y-32500000D02*
X65414213Y-32500000D01*
X75821002Y-36805000D02*
X71516002Y-32500000D01*
X78000000Y-36805000D02*
X75821002Y-36805000D01*
X59695000Y-36805000D02*
X64000000Y-32500000D01*
X57000000Y-36805000D02*
X59695000Y-36805000D01*
X90414213Y-32500000D02*
X89000000Y-32500000D01*
X96516002Y-32500000D02*
X90414213Y-32500000D01*
X100821002Y-36805000D02*
X96516002Y-32500000D01*
X103000000Y-36805000D02*
X100821002Y-36805000D01*
X84695000Y-36805000D02*
X89000000Y-32500000D01*
X82000000Y-36805000D02*
X84695000Y-36805000D01*
X115414213Y-32500000D02*
X114000000Y-32500000D01*
X121516002Y-32500000D02*
X115414213Y-32500000D01*
X125821002Y-36805000D02*
X121516002Y-32500000D01*
X128000000Y-36805000D02*
X125821002Y-36805000D01*
X109695000Y-36805000D02*
X114000000Y-32500000D01*
X107000000Y-36805000D02*
X109695000Y-36805000D01*
X34695000Y-69805000D02*
X39000000Y-65500000D01*
X32000000Y-69805000D02*
X34695000Y-69805000D01*
X50821002Y-69805000D02*
X46516002Y-65500000D01*
X53000000Y-69805000D02*
X50821002Y-69805000D01*
X40414213Y-65500000D02*
X39000000Y-65500000D01*
X46516002Y-65500000D02*
X40414213Y-65500000D01*
X65414213Y-65500000D02*
X64000000Y-65500000D01*
X78000000Y-69805000D02*
X75821002Y-69805000D01*
X71516002Y-65500000D02*
X65414213Y-65500000D01*
X75821002Y-69805000D02*
X71516002Y-65500000D01*
X59695000Y-69805000D02*
X64000000Y-65500000D01*
X57000000Y-69805000D02*
X59695000Y-69805000D01*
X84695000Y-69805000D02*
X89000000Y-65500000D01*
X96516002Y-65500000D02*
X90414213Y-65500000D01*
X90414213Y-65500000D02*
X89000000Y-65500000D01*
X100821002Y-69805000D02*
X96516002Y-65500000D01*
X82000000Y-69805000D02*
X84695000Y-69805000D01*
X103000000Y-69805000D02*
X100821002Y-69805000D01*
X107000000Y-69805000D02*
X109695000Y-69805000D01*
X109695000Y-69805000D02*
X114000000Y-65500000D01*
X128000000Y-69805000D02*
X125821002Y-69805000D01*
X125821002Y-69805000D02*
X121516002Y-65500000D01*
X121516002Y-65500000D02*
X115414213Y-65500000D01*
X115414213Y-65500000D02*
X114000000Y-65500000D01*
X40414213Y-98500000D02*
X39000000Y-98500000D01*
X32000000Y-102805000D02*
X34695000Y-102805000D01*
X34695000Y-102805000D02*
X39000000Y-98500000D01*
X50821002Y-102805000D02*
X46516002Y-98500000D01*
X53000000Y-102805000D02*
X50821002Y-102805000D01*
X78000000Y-102805000D02*
X75821002Y-102805000D01*
X71516002Y-98500000D02*
X65414213Y-98500000D01*
X59695000Y-102805000D02*
X64000000Y-98500000D01*
X57000000Y-102805000D02*
X59695000Y-102805000D01*
X65414213Y-98500000D02*
X64000000Y-98500000D01*
X75821002Y-102805000D02*
X71516002Y-98500000D01*
X46516002Y-98500000D02*
X40414213Y-98500000D01*
X82000000Y-102805000D02*
X84695000Y-102805000D01*
X100821002Y-102805000D02*
X96516002Y-98500000D01*
X103000000Y-102805000D02*
X100821002Y-102805000D01*
X90414213Y-98500000D02*
X89000000Y-98500000D01*
X84695000Y-102805000D02*
X89000000Y-98500000D01*
X96516002Y-98500000D02*
X90414213Y-98500000D01*
X128000000Y-102805000D02*
X125821002Y-102805000D01*
X115414213Y-98500000D02*
X114000000Y-98500000D01*
X121516002Y-98500000D02*
X115414213Y-98500000D01*
X107000000Y-102805000D02*
X109695000Y-102805000D01*
X125821002Y-102805000D02*
X121516002Y-98500000D01*
X109695000Y-102805000D02*
X114000000Y-98500000D01*
M02*
