G04 #@! TF.GenerationSoftware,KiCad,Pcbnew,(5.1.5)-3*
G04 #@! TF.CreationDate,2021-03-23T18:23:01+09:00*
G04 #@! TF.ProjectId,DSub15TestPoint(3x4),44537562-3135-4546-9573-74506f696e74,rev?*
G04 #@! TF.SameCoordinates,Original*
G04 #@! TF.FileFunction,Copper,L2,Bot*
G04 #@! TF.FilePolarity,Positive*
%FSLAX46Y46*%
G04 Gerber Fmt 4.6, Leading zero omitted, Abs format (unit mm)*
G04 Created by KiCad (PCBNEW (5.1.5)-3) date 2021-03-23 18:23:01*
%MOMM*%
%LPD*%
G04 APERTURE LIST*
%ADD10C,2.000000*%
%ADD11R,3.480000X1.846667*%
%ADD12C,1.000000*%
G04 APERTURE END LIST*
D10*
X114000000Y-98500000D03*
X121000000Y-116500000D03*
X114000000Y-102500000D03*
X114000000Y-106500000D03*
X114000000Y-110500000D03*
X114000000Y-114500000D03*
X121000000Y-124500000D03*
X121000000Y-100500000D03*
X71000000Y-112500000D03*
X71000000Y-104500000D03*
X114000000Y-126500000D03*
X114000000Y-122500000D03*
X71000000Y-108500000D03*
X114000000Y-118500000D03*
X96000000Y-108500000D03*
X96000000Y-112500000D03*
X121000000Y-120500000D03*
D11*
X128000000Y-120810000D03*
X128000000Y-118040000D03*
X128000000Y-115270000D03*
X128000000Y-112500000D03*
X128000000Y-109730000D03*
X128000000Y-106960000D03*
X128000000Y-104190000D03*
D10*
X96000000Y-100500000D03*
D11*
X107000000Y-120810000D03*
X107000000Y-118040000D03*
X107000000Y-115270000D03*
X107000000Y-112500000D03*
X107000000Y-109730000D03*
X107000000Y-106960000D03*
X107000000Y-104190000D03*
D10*
X89000000Y-126500000D03*
X121000000Y-104500000D03*
X121000000Y-108500000D03*
X71000000Y-116500000D03*
X121000000Y-112500000D03*
X96000000Y-104500000D03*
X89000000Y-102500000D03*
D11*
X82000000Y-120810000D03*
X82000000Y-118040000D03*
X82000000Y-115270000D03*
X82000000Y-112500000D03*
X82000000Y-109730000D03*
X82000000Y-106960000D03*
X82000000Y-104190000D03*
X103000000Y-120810000D03*
X103000000Y-118040000D03*
X103000000Y-115270000D03*
X103000000Y-112500000D03*
X103000000Y-109730000D03*
X103000000Y-106960000D03*
X103000000Y-104190000D03*
D10*
X89000000Y-114500000D03*
X89000000Y-98500000D03*
X89000000Y-110500000D03*
X46000000Y-120500000D03*
X64000000Y-98500000D03*
X96000000Y-120500000D03*
X89000000Y-106500000D03*
X64000000Y-102500000D03*
X96000000Y-124500000D03*
X89000000Y-118500000D03*
X46000000Y-104500000D03*
X96000000Y-116500000D03*
X71000000Y-100500000D03*
X89000000Y-122500000D03*
X71000000Y-124500000D03*
X39000000Y-126500000D03*
D11*
X32000000Y-120810000D03*
X32000000Y-118040000D03*
X32000000Y-115270000D03*
X32000000Y-112500000D03*
X32000000Y-109730000D03*
X32000000Y-106960000D03*
X32000000Y-104190000D03*
D10*
X39000000Y-114500000D03*
D11*
X53000000Y-120810000D03*
X53000000Y-118040000D03*
X53000000Y-115270000D03*
X53000000Y-112500000D03*
X53000000Y-109730000D03*
X53000000Y-106960000D03*
X53000000Y-104190000D03*
D10*
X39000000Y-118500000D03*
X39000000Y-122500000D03*
X64000000Y-126500000D03*
X39000000Y-110500000D03*
D11*
X78000000Y-120810000D03*
X78000000Y-118040000D03*
X78000000Y-115270000D03*
X78000000Y-112500000D03*
X78000000Y-109730000D03*
X78000000Y-106960000D03*
X78000000Y-104190000D03*
X57000000Y-120810000D03*
X57000000Y-118040000D03*
X57000000Y-115270000D03*
X57000000Y-112500000D03*
X57000000Y-109730000D03*
X57000000Y-106960000D03*
X57000000Y-104190000D03*
D10*
X39000000Y-98500000D03*
X64000000Y-114500000D03*
X46000000Y-116500000D03*
X46000000Y-108500000D03*
X64000000Y-118500000D03*
X46000000Y-124500000D03*
X39000000Y-102500000D03*
X39000000Y-106500000D03*
X46000000Y-100500000D03*
X64000000Y-106500000D03*
X46000000Y-112500000D03*
X64000000Y-122500000D03*
X71000000Y-120500000D03*
X64000000Y-110500000D03*
X114000000Y-73500000D03*
X121000000Y-83500000D03*
X114000000Y-69500000D03*
X114000000Y-65500000D03*
X121000000Y-67500000D03*
X121000000Y-91500000D03*
X114000000Y-77500000D03*
X114000000Y-81500000D03*
X121000000Y-71500000D03*
X121000000Y-75500000D03*
X121000000Y-79500000D03*
X121000000Y-87500000D03*
X114000000Y-93500000D03*
D11*
X128000000Y-71190000D03*
X128000000Y-73960000D03*
X128000000Y-76730000D03*
X128000000Y-79500000D03*
X128000000Y-82270000D03*
X128000000Y-85040000D03*
X128000000Y-87810000D03*
D10*
X114000000Y-89500000D03*
X96000000Y-67500000D03*
D11*
X107000000Y-71190000D03*
X107000000Y-73960000D03*
X107000000Y-76730000D03*
X107000000Y-79500000D03*
X107000000Y-82270000D03*
X107000000Y-85040000D03*
X107000000Y-87810000D03*
D10*
X96000000Y-71500000D03*
X114000000Y-85500000D03*
X96000000Y-79500000D03*
X96000000Y-75500000D03*
X71000000Y-75500000D03*
X71000000Y-83500000D03*
X71000000Y-79500000D03*
X71000000Y-71500000D03*
X89000000Y-93500000D03*
X96000000Y-91500000D03*
X89000000Y-69500000D03*
X96000000Y-83500000D03*
X89000000Y-65500000D03*
X89000000Y-85500000D03*
D11*
X82000000Y-71190000D03*
X82000000Y-73960000D03*
X82000000Y-76730000D03*
X82000000Y-79500000D03*
X82000000Y-82270000D03*
X82000000Y-85040000D03*
X82000000Y-87810000D03*
D10*
X96000000Y-87500000D03*
X71000000Y-67500000D03*
X89000000Y-73500000D03*
D11*
X103000000Y-71190000D03*
X103000000Y-73960000D03*
X103000000Y-76730000D03*
X103000000Y-79500000D03*
X103000000Y-82270000D03*
X103000000Y-85040000D03*
X103000000Y-87810000D03*
D10*
X89000000Y-81500000D03*
X89000000Y-77500000D03*
X89000000Y-89500000D03*
X71000000Y-91500000D03*
X64000000Y-65500000D03*
X46000000Y-87500000D03*
X46000000Y-71500000D03*
X64000000Y-69500000D03*
X64000000Y-77500000D03*
D11*
X57000000Y-71190000D03*
X57000000Y-73960000D03*
X57000000Y-76730000D03*
X57000000Y-79500000D03*
X57000000Y-82270000D03*
X57000000Y-85040000D03*
X57000000Y-87810000D03*
D10*
X64000000Y-89500000D03*
X64000000Y-81500000D03*
X64000000Y-93500000D03*
D11*
X78000000Y-71190000D03*
X78000000Y-73960000D03*
X78000000Y-76730000D03*
X78000000Y-79500000D03*
X78000000Y-82270000D03*
X78000000Y-85040000D03*
X78000000Y-87810000D03*
D10*
X46000000Y-83500000D03*
X46000000Y-75500000D03*
X46000000Y-67500000D03*
X64000000Y-85500000D03*
X64000000Y-73500000D03*
X46000000Y-79500000D03*
X71000000Y-87500000D03*
X46000000Y-91500000D03*
X39000000Y-65500000D03*
X39000000Y-69500000D03*
X39000000Y-73500000D03*
X39000000Y-77500000D03*
D11*
X32000000Y-71190000D03*
X32000000Y-73960000D03*
X32000000Y-76730000D03*
X32000000Y-79500000D03*
X32000000Y-82270000D03*
X32000000Y-85040000D03*
X32000000Y-87810000D03*
D10*
X39000000Y-81500000D03*
D11*
X53000000Y-71190000D03*
X53000000Y-73960000D03*
X53000000Y-76730000D03*
X53000000Y-79500000D03*
X53000000Y-82270000D03*
X53000000Y-85040000D03*
X53000000Y-87810000D03*
D10*
X39000000Y-85500000D03*
X39000000Y-89500000D03*
X39000000Y-93500000D03*
D11*
X32000000Y-54810000D03*
X32000000Y-52040000D03*
X32000000Y-49270000D03*
X32000000Y-46500000D03*
X32000000Y-43730000D03*
X32000000Y-40960000D03*
X32000000Y-38190000D03*
X53000000Y-54810000D03*
X53000000Y-52040000D03*
X53000000Y-49270000D03*
X53000000Y-46500000D03*
X53000000Y-43730000D03*
X53000000Y-40960000D03*
X53000000Y-38190000D03*
D10*
X39000000Y-60500000D03*
X39000000Y-56500000D03*
X39000000Y-52500000D03*
X39000000Y-48500000D03*
X39000000Y-44500000D03*
X39000000Y-40500000D03*
X39000000Y-36500000D03*
X39000000Y-32500000D03*
X46000000Y-58500000D03*
X46000000Y-54500000D03*
X46000000Y-50500000D03*
X46000000Y-46500000D03*
X46000000Y-42500000D03*
X46000000Y-38500000D03*
X46000000Y-34500000D03*
D11*
X57000000Y-54810000D03*
X57000000Y-52040000D03*
X57000000Y-49270000D03*
X57000000Y-46500000D03*
X57000000Y-43730000D03*
X57000000Y-40960000D03*
X57000000Y-38190000D03*
X78000000Y-54810000D03*
X78000000Y-52040000D03*
X78000000Y-49270000D03*
X78000000Y-46500000D03*
X78000000Y-43730000D03*
X78000000Y-40960000D03*
X78000000Y-38190000D03*
D10*
X64000000Y-60500000D03*
X64000000Y-56500000D03*
X64000000Y-52500000D03*
X64000000Y-48500000D03*
X64000000Y-44500000D03*
X64000000Y-40500000D03*
X64000000Y-36500000D03*
X64000000Y-32500000D03*
X71000000Y-58500000D03*
X71000000Y-54500000D03*
X71000000Y-50500000D03*
X71000000Y-46500000D03*
X71000000Y-42500000D03*
X71000000Y-38500000D03*
X71000000Y-34500000D03*
D11*
X82000000Y-54810000D03*
X82000000Y-52040000D03*
X82000000Y-49270000D03*
X82000000Y-46500000D03*
X82000000Y-43730000D03*
X82000000Y-40960000D03*
X82000000Y-38190000D03*
X103000000Y-54810000D03*
X103000000Y-52040000D03*
X103000000Y-49270000D03*
X103000000Y-46500000D03*
X103000000Y-43730000D03*
X103000000Y-40960000D03*
X103000000Y-38190000D03*
D10*
X89000000Y-60500000D03*
X89000000Y-56500000D03*
X89000000Y-52500000D03*
X89000000Y-48500000D03*
X89000000Y-44500000D03*
X89000000Y-40500000D03*
X89000000Y-36500000D03*
X89000000Y-32500000D03*
X96000000Y-58500000D03*
X96000000Y-54500000D03*
X96000000Y-50500000D03*
X96000000Y-46500000D03*
X96000000Y-42500000D03*
X96000000Y-38500000D03*
X96000000Y-34500000D03*
D11*
X107000000Y-54810000D03*
X107000000Y-52040000D03*
X107000000Y-49270000D03*
X107000000Y-46500000D03*
X107000000Y-43730000D03*
X107000000Y-40960000D03*
X107000000Y-38190000D03*
X128000000Y-54810000D03*
X128000000Y-52040000D03*
X128000000Y-49270000D03*
X128000000Y-46500000D03*
X128000000Y-43730000D03*
X128000000Y-40960000D03*
X128000000Y-38190000D03*
D10*
X114000000Y-60500000D03*
X114000000Y-56500000D03*
X114000000Y-52500000D03*
X114000000Y-48500000D03*
X114000000Y-44500000D03*
X114000000Y-40500000D03*
X114000000Y-36500000D03*
X114000000Y-32500000D03*
X121000000Y-58500000D03*
X121000000Y-54500000D03*
X121000000Y-50500000D03*
X121000000Y-46500000D03*
X121000000Y-42500000D03*
X121000000Y-38500000D03*
X121000000Y-34500000D03*
D12*
X49690000Y-54810000D02*
X46000000Y-58500000D01*
X53000000Y-54810000D02*
X49690000Y-54810000D01*
X38430000Y-58500000D02*
X44585787Y-58500000D01*
X44585787Y-58500000D02*
X46000000Y-58500000D01*
X34740000Y-54810000D02*
X38430000Y-58500000D01*
X32000000Y-54810000D02*
X34740000Y-54810000D01*
X74690000Y-54810000D02*
X71000000Y-58500000D01*
X78000000Y-54810000D02*
X74690000Y-54810000D01*
X63430000Y-58500000D02*
X69585787Y-58500000D01*
X69585787Y-58500000D02*
X71000000Y-58500000D01*
X59740000Y-54810000D02*
X63430000Y-58500000D01*
X57000000Y-54810000D02*
X59740000Y-54810000D01*
X99690000Y-54810000D02*
X96000000Y-58500000D01*
X103000000Y-54810000D02*
X99690000Y-54810000D01*
X88430000Y-58500000D02*
X94585787Y-58500000D01*
X94585787Y-58500000D02*
X96000000Y-58500000D01*
X84740000Y-54810000D02*
X88430000Y-58500000D01*
X82000000Y-54810000D02*
X84740000Y-54810000D01*
X124690000Y-54810000D02*
X121000000Y-58500000D01*
X128000000Y-54810000D02*
X124690000Y-54810000D01*
X113430000Y-58500000D02*
X119585787Y-58500000D01*
X119585787Y-58500000D02*
X121000000Y-58500000D01*
X109740000Y-54810000D02*
X113430000Y-58500000D01*
X107000000Y-54810000D02*
X109740000Y-54810000D01*
X49690000Y-87810000D02*
X46000000Y-91500000D01*
X53000000Y-87810000D02*
X49690000Y-87810000D01*
X38430000Y-91500000D02*
X44585787Y-91500000D01*
X63430000Y-91500000D02*
X69585787Y-91500000D01*
X74690000Y-87810000D02*
X71000000Y-91500000D01*
X57000000Y-87810000D02*
X59740000Y-87810000D01*
X78000000Y-87810000D02*
X74690000Y-87810000D01*
X69585787Y-91500000D02*
X71000000Y-91500000D01*
X59740000Y-87810000D02*
X63430000Y-91500000D01*
X44585787Y-91500000D02*
X46000000Y-91500000D01*
X34740000Y-87810000D02*
X38430000Y-91500000D01*
X32000000Y-87810000D02*
X34740000Y-87810000D01*
X88430000Y-91500000D02*
X94585787Y-91500000D01*
X84740000Y-87810000D02*
X88430000Y-91500000D01*
X103000000Y-87810000D02*
X99690000Y-87810000D01*
X82000000Y-87810000D02*
X84740000Y-87810000D01*
X99690000Y-87810000D02*
X96000000Y-91500000D01*
X94585787Y-91500000D02*
X96000000Y-91500000D01*
X128000000Y-87810000D02*
X124690000Y-87810000D01*
X109740000Y-87810000D02*
X113430000Y-91500000D01*
X124690000Y-87810000D02*
X121000000Y-91500000D01*
X119585787Y-91500000D02*
X121000000Y-91500000D01*
X113430000Y-91500000D02*
X119585787Y-91500000D01*
X107000000Y-87810000D02*
X109740000Y-87810000D01*
X49690000Y-120810000D02*
X46000000Y-124500000D01*
X53000000Y-120810000D02*
X49690000Y-120810000D01*
X38430000Y-124500000D02*
X44585787Y-124500000D01*
X63430000Y-124500000D02*
X69585787Y-124500000D01*
X74690000Y-120810000D02*
X71000000Y-124500000D01*
X69585787Y-124500000D02*
X71000000Y-124500000D01*
X57000000Y-120810000D02*
X59740000Y-120810000D01*
X44585787Y-124500000D02*
X46000000Y-124500000D01*
X59740000Y-120810000D02*
X63430000Y-124500000D01*
X78000000Y-120810000D02*
X74690000Y-120810000D01*
X34740000Y-120810000D02*
X38430000Y-124500000D01*
X32000000Y-120810000D02*
X34740000Y-120810000D01*
X94585787Y-124500000D02*
X96000000Y-124500000D01*
X82000000Y-120810000D02*
X84740000Y-120810000D01*
X88430000Y-124500000D02*
X94585787Y-124500000D01*
X84740000Y-120810000D02*
X88430000Y-124500000D01*
X99690000Y-120810000D02*
X96000000Y-124500000D01*
X103000000Y-120810000D02*
X99690000Y-120810000D01*
X119585787Y-124500000D02*
X121000000Y-124500000D01*
X107000000Y-120810000D02*
X109740000Y-120810000D01*
X109740000Y-120810000D02*
X113430000Y-124500000D01*
X128000000Y-120810000D02*
X124690000Y-120810000D01*
X113430000Y-124500000D02*
X119585787Y-124500000D01*
X124690000Y-120810000D02*
X121000000Y-124500000D01*
X48460000Y-52040000D02*
X46000000Y-54500000D01*
X53000000Y-52040000D02*
X48460000Y-52040000D01*
X44585787Y-54500000D02*
X46000000Y-54500000D01*
X37200000Y-54500000D02*
X44585787Y-54500000D01*
X34740000Y-52040000D02*
X37200000Y-54500000D01*
X32000000Y-52040000D02*
X34740000Y-52040000D01*
X73460000Y-52040000D02*
X71000000Y-54500000D01*
X78000000Y-52040000D02*
X73460000Y-52040000D01*
X69585787Y-54500000D02*
X71000000Y-54500000D01*
X62200000Y-54500000D02*
X69585787Y-54500000D01*
X59740000Y-52040000D02*
X62200000Y-54500000D01*
X57000000Y-52040000D02*
X59740000Y-52040000D01*
X98460000Y-52040000D02*
X96000000Y-54500000D01*
X103000000Y-52040000D02*
X98460000Y-52040000D01*
X94585787Y-54500000D02*
X96000000Y-54500000D01*
X87200000Y-54500000D02*
X94585787Y-54500000D01*
X84740000Y-52040000D02*
X87200000Y-54500000D01*
X82000000Y-52040000D02*
X84740000Y-52040000D01*
X123460000Y-52040000D02*
X121000000Y-54500000D01*
X128000000Y-52040000D02*
X123460000Y-52040000D01*
X119585787Y-54500000D02*
X121000000Y-54500000D01*
X112200000Y-54500000D02*
X119585787Y-54500000D01*
X109740000Y-52040000D02*
X112200000Y-54500000D01*
X107000000Y-52040000D02*
X109740000Y-52040000D01*
X59740000Y-85040000D02*
X62200000Y-87500000D01*
X57000000Y-85040000D02*
X59740000Y-85040000D01*
X69585787Y-87500000D02*
X71000000Y-87500000D01*
X62200000Y-87500000D02*
X69585787Y-87500000D01*
X73460000Y-85040000D02*
X71000000Y-87500000D01*
X78000000Y-85040000D02*
X73460000Y-85040000D01*
X53000000Y-85040000D02*
X48460000Y-85040000D01*
X34740000Y-85040000D02*
X37200000Y-87500000D01*
X44585787Y-87500000D02*
X46000000Y-87500000D01*
X37200000Y-87500000D02*
X44585787Y-87500000D01*
X32000000Y-85040000D02*
X34740000Y-85040000D01*
X48460000Y-85040000D02*
X46000000Y-87500000D01*
X103000000Y-85040000D02*
X98460000Y-85040000D01*
X94585787Y-87500000D02*
X96000000Y-87500000D01*
X98460000Y-85040000D02*
X96000000Y-87500000D01*
X87200000Y-87500000D02*
X94585787Y-87500000D01*
X82000000Y-85040000D02*
X84740000Y-85040000D01*
X84740000Y-85040000D02*
X87200000Y-87500000D01*
X123460000Y-85040000D02*
X121000000Y-87500000D01*
X119585787Y-87500000D02*
X121000000Y-87500000D01*
X107000000Y-85040000D02*
X109740000Y-85040000D01*
X128000000Y-85040000D02*
X123460000Y-85040000D01*
X109740000Y-85040000D02*
X112200000Y-87500000D01*
X112200000Y-87500000D02*
X119585787Y-87500000D01*
X62200000Y-120500000D02*
X69585787Y-120500000D01*
X57000000Y-118040000D02*
X59740000Y-118040000D01*
X69585787Y-120500000D02*
X71000000Y-120500000D01*
X59740000Y-118040000D02*
X62200000Y-120500000D01*
X53000000Y-118040000D02*
X48460000Y-118040000D01*
X34740000Y-118040000D02*
X37200000Y-120500000D01*
X78000000Y-118040000D02*
X73460000Y-118040000D01*
X73460000Y-118040000D02*
X71000000Y-120500000D01*
X44585787Y-120500000D02*
X46000000Y-120500000D01*
X37200000Y-120500000D02*
X44585787Y-120500000D01*
X32000000Y-118040000D02*
X34740000Y-118040000D01*
X94585787Y-120500000D02*
X96000000Y-120500000D01*
X48460000Y-118040000D02*
X46000000Y-120500000D01*
X98460000Y-118040000D02*
X96000000Y-120500000D01*
X103000000Y-118040000D02*
X98460000Y-118040000D01*
X82000000Y-118040000D02*
X84740000Y-118040000D01*
X84740000Y-118040000D02*
X87200000Y-120500000D01*
X87200000Y-120500000D02*
X94585787Y-120500000D01*
X112200000Y-120500000D02*
X119585787Y-120500000D01*
X123460000Y-118040000D02*
X121000000Y-120500000D01*
X109740000Y-118040000D02*
X112200000Y-120500000D01*
X119585787Y-120500000D02*
X121000000Y-120500000D01*
X107000000Y-118040000D02*
X109740000Y-118040000D01*
X128000000Y-118040000D02*
X123460000Y-118040000D01*
X47230000Y-49270000D02*
X46000000Y-50500000D01*
X53000000Y-49270000D02*
X47230000Y-49270000D01*
X44585787Y-50500000D02*
X46000000Y-50500000D01*
X35970000Y-50500000D02*
X44585787Y-50500000D01*
X34740000Y-49270000D02*
X35970000Y-50500000D01*
X32000000Y-49270000D02*
X34740000Y-49270000D01*
X72230000Y-49270000D02*
X71000000Y-50500000D01*
X78000000Y-49270000D02*
X72230000Y-49270000D01*
X69585787Y-50500000D02*
X71000000Y-50500000D01*
X60970000Y-50500000D02*
X69585787Y-50500000D01*
X59740000Y-49270000D02*
X60970000Y-50500000D01*
X57000000Y-49270000D02*
X59740000Y-49270000D01*
X97230000Y-49270000D02*
X96000000Y-50500000D01*
X103000000Y-49270000D02*
X97230000Y-49270000D01*
X94585787Y-50500000D02*
X96000000Y-50500000D01*
X85970000Y-50500000D02*
X94585787Y-50500000D01*
X84740000Y-49270000D02*
X85970000Y-50500000D01*
X82000000Y-49270000D02*
X84740000Y-49270000D01*
X122230000Y-49270000D02*
X121000000Y-50500000D01*
X128000000Y-49270000D02*
X122230000Y-49270000D01*
X119585787Y-50500000D02*
X121000000Y-50500000D01*
X110970000Y-50500000D02*
X119585787Y-50500000D01*
X109740000Y-49270000D02*
X110970000Y-50500000D01*
X107000000Y-49270000D02*
X109740000Y-49270000D01*
X69585787Y-83500000D02*
X71000000Y-83500000D01*
X60970000Y-83500000D02*
X69585787Y-83500000D01*
X57000000Y-82270000D02*
X59740000Y-82270000D01*
X78000000Y-82270000D02*
X72230000Y-82270000D01*
X59740000Y-82270000D02*
X60970000Y-83500000D01*
X72230000Y-82270000D02*
X71000000Y-83500000D01*
X47230000Y-82270000D02*
X46000000Y-83500000D01*
X53000000Y-82270000D02*
X47230000Y-82270000D01*
X35970000Y-83500000D02*
X44585787Y-83500000D01*
X34740000Y-82270000D02*
X35970000Y-83500000D01*
X44585787Y-83500000D02*
X46000000Y-83500000D01*
X32000000Y-82270000D02*
X34740000Y-82270000D01*
X85970000Y-83500000D02*
X94585787Y-83500000D01*
X97230000Y-82270000D02*
X96000000Y-83500000D01*
X82000000Y-82270000D02*
X84740000Y-82270000D01*
X84740000Y-82270000D02*
X85970000Y-83500000D01*
X94585787Y-83500000D02*
X96000000Y-83500000D01*
X103000000Y-82270000D02*
X97230000Y-82270000D01*
X119585787Y-83500000D02*
X121000000Y-83500000D01*
X109740000Y-82270000D02*
X110970000Y-83500000D01*
X107000000Y-82270000D02*
X109740000Y-82270000D01*
X122230000Y-82270000D02*
X121000000Y-83500000D01*
X110970000Y-83500000D02*
X119585787Y-83500000D01*
X128000000Y-82270000D02*
X122230000Y-82270000D01*
X78000000Y-115270000D02*
X72230000Y-115270000D01*
X69585787Y-116500000D02*
X71000000Y-116500000D01*
X57000000Y-115270000D02*
X59740000Y-115270000D01*
X60970000Y-116500000D02*
X69585787Y-116500000D01*
X59740000Y-115270000D02*
X60970000Y-116500000D01*
X72230000Y-115270000D02*
X71000000Y-116500000D01*
X47230000Y-115270000D02*
X46000000Y-116500000D01*
X44585787Y-116500000D02*
X46000000Y-116500000D01*
X35970000Y-116500000D02*
X44585787Y-116500000D01*
X53000000Y-115270000D02*
X47230000Y-115270000D01*
X32000000Y-115270000D02*
X34740000Y-115270000D01*
X34740000Y-115270000D02*
X35970000Y-116500000D01*
X97230000Y-115270000D02*
X96000000Y-116500000D01*
X82000000Y-115270000D02*
X84740000Y-115270000D01*
X103000000Y-115270000D02*
X97230000Y-115270000D01*
X94585787Y-116500000D02*
X96000000Y-116500000D01*
X84740000Y-115270000D02*
X85970000Y-116500000D01*
X85970000Y-116500000D02*
X94585787Y-116500000D01*
X109740000Y-115270000D02*
X110970000Y-116500000D01*
X122230000Y-115270000D02*
X121000000Y-116500000D01*
X119585787Y-116500000D02*
X121000000Y-116500000D01*
X110970000Y-116500000D02*
X119585787Y-116500000D01*
X128000000Y-115270000D02*
X122230000Y-115270000D01*
X107000000Y-115270000D02*
X109740000Y-115270000D01*
X53000000Y-46500000D02*
X46000000Y-46500000D01*
X46000000Y-46500000D02*
X32000000Y-46500000D01*
X78000000Y-46500000D02*
X71000000Y-46500000D01*
X71000000Y-46500000D02*
X57000000Y-46500000D01*
X103000000Y-46500000D02*
X96000000Y-46500000D01*
X96000000Y-46500000D02*
X82000000Y-46500000D01*
X128000000Y-46500000D02*
X121000000Y-46500000D01*
X121000000Y-46500000D02*
X107000000Y-46500000D01*
X71000000Y-79500000D02*
X57000000Y-79500000D01*
X78000000Y-79500000D02*
X71000000Y-79500000D01*
X46000000Y-79500000D02*
X32000000Y-79500000D01*
X53000000Y-79500000D02*
X46000000Y-79500000D01*
X103000000Y-79500000D02*
X96000000Y-79500000D01*
X96000000Y-79500000D02*
X82000000Y-79500000D01*
X121000000Y-79500000D02*
X107000000Y-79500000D01*
X128000000Y-79500000D02*
X121000000Y-79500000D01*
X71000000Y-112500000D02*
X57000000Y-112500000D01*
X46000000Y-112500000D02*
X32000000Y-112500000D01*
X78000000Y-112500000D02*
X71000000Y-112500000D01*
X53000000Y-112500000D02*
X46000000Y-112500000D01*
X103000000Y-112500000D02*
X96000000Y-112500000D01*
X96000000Y-112500000D02*
X82000000Y-112500000D01*
X121000000Y-112500000D02*
X107000000Y-112500000D01*
X128000000Y-112500000D02*
X121000000Y-112500000D01*
X47230000Y-43730000D02*
X46000000Y-42500000D01*
X53000000Y-43730000D02*
X47230000Y-43730000D01*
X44585787Y-42500000D02*
X46000000Y-42500000D01*
X35970000Y-42500000D02*
X44585787Y-42500000D01*
X34740000Y-43730000D02*
X35970000Y-42500000D01*
X32000000Y-43730000D02*
X34740000Y-43730000D01*
X72230000Y-43730000D02*
X71000000Y-42500000D01*
X78000000Y-43730000D02*
X72230000Y-43730000D01*
X69585787Y-42500000D02*
X71000000Y-42500000D01*
X60970000Y-42500000D02*
X69585787Y-42500000D01*
X59740000Y-43730000D02*
X60970000Y-42500000D01*
X57000000Y-43730000D02*
X59740000Y-43730000D01*
X97230000Y-43730000D02*
X96000000Y-42500000D01*
X103000000Y-43730000D02*
X97230000Y-43730000D01*
X94585787Y-42500000D02*
X96000000Y-42500000D01*
X85970000Y-42500000D02*
X94585787Y-42500000D01*
X84740000Y-43730000D02*
X85970000Y-42500000D01*
X82000000Y-43730000D02*
X84740000Y-43730000D01*
X122230000Y-43730000D02*
X121000000Y-42500000D01*
X128000000Y-43730000D02*
X122230000Y-43730000D01*
X119585787Y-42500000D02*
X121000000Y-42500000D01*
X110970000Y-42500000D02*
X119585787Y-42500000D01*
X109740000Y-43730000D02*
X110970000Y-42500000D01*
X107000000Y-43730000D02*
X109740000Y-43730000D01*
X72230000Y-76730000D02*
X71000000Y-75500000D01*
X78000000Y-76730000D02*
X72230000Y-76730000D01*
X60970000Y-75500000D02*
X69585787Y-75500000D01*
X69585787Y-75500000D02*
X71000000Y-75500000D01*
X59740000Y-76730000D02*
X60970000Y-75500000D01*
X57000000Y-76730000D02*
X59740000Y-76730000D01*
X44585787Y-75500000D02*
X46000000Y-75500000D01*
X35970000Y-75500000D02*
X44585787Y-75500000D01*
X47230000Y-76730000D02*
X46000000Y-75500000D01*
X53000000Y-76730000D02*
X47230000Y-76730000D01*
X34740000Y-76730000D02*
X35970000Y-75500000D01*
X32000000Y-76730000D02*
X34740000Y-76730000D01*
X94585787Y-75500000D02*
X96000000Y-75500000D01*
X103000000Y-76730000D02*
X97230000Y-76730000D01*
X85970000Y-75500000D02*
X94585787Y-75500000D01*
X97230000Y-76730000D02*
X96000000Y-75500000D01*
X82000000Y-76730000D02*
X84740000Y-76730000D01*
X84740000Y-76730000D02*
X85970000Y-75500000D01*
X122230000Y-76730000D02*
X121000000Y-75500000D01*
X128000000Y-76730000D02*
X122230000Y-76730000D01*
X109740000Y-76730000D02*
X110970000Y-75500000D01*
X110970000Y-75500000D02*
X119585787Y-75500000D01*
X119585787Y-75500000D02*
X121000000Y-75500000D01*
X107000000Y-76730000D02*
X109740000Y-76730000D01*
X72230000Y-109730000D02*
X71000000Y-108500000D01*
X60970000Y-108500000D02*
X69585787Y-108500000D01*
X78000000Y-109730000D02*
X72230000Y-109730000D01*
X69585787Y-108500000D02*
X71000000Y-108500000D01*
X57000000Y-109730000D02*
X59740000Y-109730000D01*
X44585787Y-108500000D02*
X46000000Y-108500000D01*
X59740000Y-109730000D02*
X60970000Y-108500000D01*
X35970000Y-108500000D02*
X44585787Y-108500000D01*
X47230000Y-109730000D02*
X46000000Y-108500000D01*
X53000000Y-109730000D02*
X47230000Y-109730000D01*
X32000000Y-109730000D02*
X34740000Y-109730000D01*
X34740000Y-109730000D02*
X35970000Y-108500000D01*
X82000000Y-109730000D02*
X84740000Y-109730000D01*
X97230000Y-109730000D02*
X96000000Y-108500000D01*
X84740000Y-109730000D02*
X85970000Y-108500000D01*
X85970000Y-108500000D02*
X94585787Y-108500000D01*
X103000000Y-109730000D02*
X97230000Y-109730000D01*
X94585787Y-108500000D02*
X96000000Y-108500000D01*
X128000000Y-109730000D02*
X122230000Y-109730000D01*
X109740000Y-109730000D02*
X110970000Y-108500000D01*
X107000000Y-109730000D02*
X109740000Y-109730000D01*
X110970000Y-108500000D02*
X119585787Y-108500000D01*
X119585787Y-108500000D02*
X121000000Y-108500000D01*
X122230000Y-109730000D02*
X121000000Y-108500000D01*
X48460000Y-40960000D02*
X46000000Y-38500000D01*
X53000000Y-40960000D02*
X48460000Y-40960000D01*
X44585787Y-38500000D02*
X46000000Y-38500000D01*
X38483998Y-38500000D02*
X44585787Y-38500000D01*
X36023998Y-40960000D02*
X38483998Y-38500000D01*
X32000000Y-40960000D02*
X36023998Y-40960000D01*
X73460000Y-40960000D02*
X71000000Y-38500000D01*
X78000000Y-40960000D02*
X73460000Y-40960000D01*
X69585787Y-38500000D02*
X71000000Y-38500000D01*
X63483998Y-38500000D02*
X69585787Y-38500000D01*
X61023998Y-40960000D02*
X63483998Y-38500000D01*
X57000000Y-40960000D02*
X61023998Y-40960000D01*
X98460000Y-40960000D02*
X96000000Y-38500000D01*
X103000000Y-40960000D02*
X98460000Y-40960000D01*
X94585787Y-38500000D02*
X96000000Y-38500000D01*
X88483998Y-38500000D02*
X94585787Y-38500000D01*
X86023998Y-40960000D02*
X88483998Y-38500000D01*
X82000000Y-40960000D02*
X86023998Y-40960000D01*
X123460000Y-40960000D02*
X121000000Y-38500000D01*
X128000000Y-40960000D02*
X123460000Y-40960000D01*
X119585787Y-38500000D02*
X121000000Y-38500000D01*
X113483998Y-38500000D02*
X119585787Y-38500000D01*
X111023998Y-40960000D02*
X113483998Y-38500000D01*
X107000000Y-40960000D02*
X111023998Y-40960000D01*
X57000000Y-73960000D02*
X61023998Y-73960000D01*
X78000000Y-73960000D02*
X73460000Y-73960000D01*
X69585787Y-71500000D02*
X71000000Y-71500000D01*
X63483998Y-71500000D02*
X69585787Y-71500000D01*
X61023998Y-73960000D02*
X63483998Y-71500000D01*
X73460000Y-73960000D02*
X71000000Y-71500000D01*
X48460000Y-73960000D02*
X46000000Y-71500000D01*
X44585787Y-71500000D02*
X46000000Y-71500000D01*
X38483998Y-71500000D02*
X44585787Y-71500000D01*
X53000000Y-73960000D02*
X48460000Y-73960000D01*
X36023998Y-73960000D02*
X38483998Y-71500000D01*
X32000000Y-73960000D02*
X36023998Y-73960000D01*
X88483998Y-71500000D02*
X94585787Y-71500000D01*
X103000000Y-73960000D02*
X98460000Y-73960000D01*
X98460000Y-73960000D02*
X96000000Y-71500000D01*
X86023998Y-73960000D02*
X88483998Y-71500000D01*
X82000000Y-73960000D02*
X86023998Y-73960000D01*
X94585787Y-71500000D02*
X96000000Y-71500000D01*
X123460000Y-73960000D02*
X121000000Y-71500000D01*
X107000000Y-73960000D02*
X111023998Y-73960000D01*
X111023998Y-73960000D02*
X113483998Y-71500000D01*
X113483998Y-71500000D02*
X119585787Y-71500000D01*
X119585787Y-71500000D02*
X121000000Y-71500000D01*
X128000000Y-73960000D02*
X123460000Y-73960000D01*
X78000000Y-106960000D02*
X73460000Y-106960000D01*
X38483998Y-104500000D02*
X44585787Y-104500000D01*
X48460000Y-106960000D02*
X46000000Y-104500000D01*
X44585787Y-104500000D02*
X46000000Y-104500000D01*
X63483998Y-104500000D02*
X69585787Y-104500000D01*
X57000000Y-106960000D02*
X61023998Y-106960000D01*
X69585787Y-104500000D02*
X71000000Y-104500000D01*
X73460000Y-106960000D02*
X71000000Y-104500000D01*
X61023998Y-106960000D02*
X63483998Y-104500000D01*
X36023998Y-106960000D02*
X38483998Y-104500000D01*
X53000000Y-106960000D02*
X48460000Y-106960000D01*
X32000000Y-106960000D02*
X36023998Y-106960000D01*
X82000000Y-106960000D02*
X86023998Y-106960000D01*
X103000000Y-106960000D02*
X98460000Y-106960000D01*
X94585787Y-104500000D02*
X96000000Y-104500000D01*
X86023998Y-106960000D02*
X88483998Y-104500000D01*
X88483998Y-104500000D02*
X94585787Y-104500000D01*
X98460000Y-106960000D02*
X96000000Y-104500000D01*
X113483998Y-104500000D02*
X119585787Y-104500000D01*
X111023998Y-106960000D02*
X113483998Y-104500000D01*
X107000000Y-106960000D02*
X111023998Y-106960000D01*
X119585787Y-104500000D02*
X121000000Y-104500000D01*
X123460000Y-106960000D02*
X121000000Y-104500000D01*
X128000000Y-106960000D02*
X123460000Y-106960000D01*
X49690000Y-38190000D02*
X46000000Y-34500000D01*
X53000000Y-38190000D02*
X49690000Y-38190000D01*
X38430000Y-34500000D02*
X44585787Y-34500000D01*
X44585787Y-34500000D02*
X46000000Y-34500000D01*
X34740000Y-38190000D02*
X38430000Y-34500000D01*
X32000000Y-38190000D02*
X34740000Y-38190000D01*
X74690000Y-38190000D02*
X71000000Y-34500000D01*
X78000000Y-38190000D02*
X74690000Y-38190000D01*
X63430000Y-34500000D02*
X69585787Y-34500000D01*
X69585787Y-34500000D02*
X71000000Y-34500000D01*
X59740000Y-38190000D02*
X63430000Y-34500000D01*
X57000000Y-38190000D02*
X59740000Y-38190000D01*
X99690000Y-38190000D02*
X96000000Y-34500000D01*
X103000000Y-38190000D02*
X99690000Y-38190000D01*
X88430000Y-34500000D02*
X94585787Y-34500000D01*
X94585787Y-34500000D02*
X96000000Y-34500000D01*
X84740000Y-38190000D02*
X88430000Y-34500000D01*
X82000000Y-38190000D02*
X84740000Y-38190000D01*
X124690000Y-38190000D02*
X121000000Y-34500000D01*
X128000000Y-38190000D02*
X124690000Y-38190000D01*
X113430000Y-34500000D02*
X119585787Y-34500000D01*
X119585787Y-34500000D02*
X121000000Y-34500000D01*
X109740000Y-38190000D02*
X113430000Y-34500000D01*
X107000000Y-38190000D02*
X109740000Y-38190000D01*
X63430000Y-67500000D02*
X69585787Y-67500000D01*
X74690000Y-71190000D02*
X71000000Y-67500000D01*
X69585787Y-67500000D02*
X71000000Y-67500000D01*
X57000000Y-71190000D02*
X59740000Y-71190000D01*
X78000000Y-71190000D02*
X74690000Y-71190000D01*
X59740000Y-71190000D02*
X63430000Y-67500000D01*
X38430000Y-67500000D02*
X44585787Y-67500000D01*
X32000000Y-71190000D02*
X34740000Y-71190000D01*
X49690000Y-71190000D02*
X46000000Y-67500000D01*
X44585787Y-67500000D02*
X46000000Y-67500000D01*
X53000000Y-71190000D02*
X49690000Y-71190000D01*
X34740000Y-71190000D02*
X38430000Y-67500000D01*
X99690000Y-71190000D02*
X96000000Y-67500000D01*
X103000000Y-71190000D02*
X99690000Y-71190000D01*
X94585787Y-67500000D02*
X96000000Y-67500000D01*
X88430000Y-67500000D02*
X94585787Y-67500000D01*
X82000000Y-71190000D02*
X84740000Y-71190000D01*
X84740000Y-71190000D02*
X88430000Y-67500000D01*
X107000000Y-71190000D02*
X109740000Y-71190000D01*
X128000000Y-71190000D02*
X124690000Y-71190000D01*
X124690000Y-71190000D02*
X121000000Y-67500000D01*
X119585787Y-67500000D02*
X121000000Y-67500000D01*
X113430000Y-67500000D02*
X119585787Y-67500000D01*
X109740000Y-71190000D02*
X113430000Y-67500000D01*
X63430000Y-100500000D02*
X69585787Y-100500000D01*
X74690000Y-104190000D02*
X71000000Y-100500000D01*
X78000000Y-104190000D02*
X74690000Y-104190000D01*
X57000000Y-104190000D02*
X59740000Y-104190000D01*
X69585787Y-100500000D02*
X71000000Y-100500000D01*
X59740000Y-104190000D02*
X63430000Y-100500000D01*
X32000000Y-104190000D02*
X34740000Y-104190000D01*
X34740000Y-104190000D02*
X38430000Y-100500000D01*
X38430000Y-100500000D02*
X44585787Y-100500000D01*
X44585787Y-100500000D02*
X46000000Y-100500000D01*
X49690000Y-104190000D02*
X46000000Y-100500000D01*
X53000000Y-104190000D02*
X49690000Y-104190000D01*
X103000000Y-104190000D02*
X99690000Y-104190000D01*
X84740000Y-104190000D02*
X88430000Y-100500000D01*
X94585787Y-100500000D02*
X96000000Y-100500000D01*
X82000000Y-104190000D02*
X84740000Y-104190000D01*
X99690000Y-104190000D02*
X96000000Y-100500000D01*
X88430000Y-100500000D02*
X94585787Y-100500000D01*
X107000000Y-104190000D02*
X109740000Y-104190000D01*
X109740000Y-104190000D02*
X113430000Y-100500000D01*
X128000000Y-104190000D02*
X124690000Y-104190000D01*
X124690000Y-104190000D02*
X121000000Y-100500000D01*
X119585787Y-100500000D02*
X121000000Y-100500000D01*
X113430000Y-100500000D02*
X119585787Y-100500000D01*
M02*
