M48
; DRILL file {KiCad (5.1.5)-3} date 2021/03/23 18:21:15
; FORMAT={-:-/ absolute / metric / decimal}
; #@! TF.CreationDate,2021-03-23T18:21:15+09:00
; #@! TF.GenerationSoftware,Kicad,Pcbnew,(5.1.5)-3
FMAT,2
METRIC
T1C1.000
%
G90
G05
T1
X89.0Y-98.5
X71.0Y-104.5
X114.0Y-102.5
X121.0Y-120.5
X64.0Y-93.5
X64.0Y-98.5
X46.0Y-75.5
X64.0Y-32.5
X71.0Y-71.5
X46.0Y-79.5
X64.0Y-48.5
X121.0Y-87.5
X64.0Y-40.5
X114.0Y-60.5
X39.0Y-93.5
X71.0Y-83.5
X96.0Y-46.5
X114.0Y-44.5
X39.0Y-36.5
X121.0Y-46.5
X121.0Y-83.5
X89.0Y-36.5
X114.0Y-73.5
X89.0Y-40.5
X89.0Y-69.5
X46.0Y-108.5
X64.0Y-65.5
X39.0Y-110.5
X96.0Y-83.5
X39.0Y-126.5
X96.0Y-104.5
X114.0Y-118.5
X96.0Y-112.5
X39.0Y-77.5
X46.0Y-104.5
X64.0Y-85.5
X46.0Y-54.5
X114.0Y-93.5
X64.0Y-89.5
X64.0Y-60.5
X46.0Y-46.5
X114.0Y-36.5
X121.0Y-79.5
X96.0Y-42.5
X39.0Y-40.5
X71.0Y-42.5
X121.0Y-54.5
X96.0Y-116.5
X96.0Y-50.5
X64.0Y-114.5
X96.0Y-87.5
X39.0Y-106.5
X71.0Y-67.5
X96.0Y-108.5
X121.0Y-100.5
X121.0Y-104.5
X89.0Y-118.5
X46.0Y-91.5
X46.0Y-38.5
X114.0Y-89.5
X71.0Y-87.5
X96.0Y-67.5
X71.0Y-54.5
X114.0Y-56.5
X114.0Y-32.5
X96.0Y-71.5
X39.0Y-85.5
X64.0Y-118.5
X39.0Y-44.5
X71.0Y-50.5
X71.0Y-100.5
X89.0Y-32.5
X39.0Y-102.5
X89.0Y-48.5
X114.0Y-81.5
X89.0Y-73.5
X64.0Y-106.5
X89.0Y-89.5
X89.0Y-102.5
X121.0Y-112.5
X114.0Y-98.5
X71.0Y-112.5
X89.0Y-106.5
X39.0Y-69.5
X64.0Y-36.5
X71.0Y-75.5
X64.0Y-77.5
X46.0Y-50.5
X96.0Y-34.5
X121.0Y-34.5
X114.0Y-48.5
X114.0Y-65.5
X71.0Y-46.5
X89.0Y-122.5
X39.0Y-52.5
X89.0Y-52.5
X64.0Y-126.5
X89.0Y-44.5
X89.0Y-81.5
X46.0Y-116.5
X64.0Y-69.5
X46.0Y-112.5
X71.0Y-91.5
X64.0Y-102.5
X89.0Y-110.5
X114.0Y-110.5
X114.0Y-126.5
X114.0Y-106.5
X96.0Y-100.5
X39.0Y-65.5
X71.0Y-116.5
X39.0Y-73.5
X64.0Y-44.5
X114.0Y-85.5
X46.0Y-42.5
X89.0Y-93.5
X39.0Y-89.5
X46.0Y-100.5
X71.0Y-38.5
X71.0Y-124.5
X39.0Y-56.5
X89.0Y-56.5
X89.0Y-65.5
X64.0Y-110.5
X96.0Y-91.5
X71.0Y-120.5
X89.0Y-126.5
X96.0Y-120.5
X114.0Y-114.5
X114.0Y-122.5
X121.0Y-116.5
X121.0Y-108.5
X64.0Y-81.5
X46.0Y-67.5
X96.0Y-75.5
X46.0Y-34.5
X114.0Y-40.5
X121.0Y-71.5
X96.0Y-38.5
X39.0Y-81.5
X46.0Y-58.5
X121.0Y-38.5
X46.0Y-124.5
X89.0Y-60.5
X114.0Y-69.5
X39.0Y-60.5
X96.0Y-54.5
X39.0Y-98.5
X89.0Y-77.5
X121.0Y-91.5
X89.0Y-85.5
X121.0Y-67.5
X89.0Y-114.5
X96.0Y-124.5
X121.0Y-124.5
X71.0Y-108.5
X46.0Y-120.5
X46.0Y-83.5
X71.0Y-58.5
X71.0Y-79.5
X64.0Y-73.5
X64.0Y-56.5
X96.0Y-79.5
X64.0Y-52.5
X121.0Y-50.5
X121.0Y-75.5
X114.0Y-52.5
X121.0Y-58.5
X39.0Y-32.5
X121.0Y-42.5
X64.0Y-122.5
X39.0Y-48.5
X96.0Y-58.5
X39.0Y-114.5
X71.0Y-34.5
X114.0Y-77.5
X46.0Y-87.5
X39.0Y-122.5
X46.0Y-71.5
X39.0Y-118.5
T0
M30
